<?xml version="1.0" standalone="no"?><!DOCTYPE svg PUBLIC "-//W3C//DTD SVG 1.1//EN" "http://www.w3.org/Graphics/SVG/1.1/DTD/svg11.dtd"><svg t="1735612525745" class="icon" viewBox="0 0 1024 1024" version="1.1" xmlns="http://www.w3.org/2000/svg" p-id="13446" xmlns:xlink="http://www.w3.org/1999/xlink" width="20" height="20"><path d="M864 512a352 352 0 1 0-704 0 352 352 0 0 0 704 0zM512 960A448 448 0 1 1 512 64a448 448 0 0 1 0 896zM512 256a64 64 0 1 1 0 128 64 64 0 0 1 0-128z m0 160a48 48 0 0 1 48 48v224a48 48 0 0 1-96 0v-224A48 48 0 0 1 512 416z" fill="#F0F8FF" p-id="13447"></path></svg>