<?xml version="1.0" standalone="no"?><!DOCTYPE svg PUBLIC "-//W3C//DTD SVG 1.1//EN" "http://www.w3.org/Graphics/SVG/1.1/DTD/svg11.dtd"><svg t="1735611768587" class="icon" viewBox="0 0 1024 1024" version="1.1" xmlns="http://www.w3.org/2000/svg" p-id="4309" width="20" height="20" xmlns:xlink="http://www.w3.org/1999/xlink"><path d="M661.333 810.667h149.334V422.059L512 213.376l-298.581 208.47-0.086 388.607v0.214h149.334v-128a128 128 0 0 1 128-128h42.666a128 128 0 0 1 128 128v128zM164.565 351.872L463.232 143.36c29.312-20.48 68.267-20.48 97.536 0l298.667 208.512c22.912 16 36.565 42.24 36.565 70.187v388.394A85.419 85.419 0 0 1 810.667 896H213.333C166.187 896 128 857.685 128 810.453V422.06c0-27.99 13.653-54.187 36.565-70.187zM576 810.667v-128A42.667 42.667 0 0 0 533.333 640h-42.666A42.667 42.667 0 0 0 448 682.667v128h128z" p-id="4310" fill="#F0F8FF"></path></svg>