<?xml version="1.0" standalone="no"?><!DOCTYPE svg PUBLIC "-//W3C//DTD SVG 1.1//EN" "http://www.w3.org/Graphics/SVG/1.1/DTD/svg11.dtd"><svg t="1735612163320" class="icon" viewBox="0 0 1024 1024" version="1.1" xmlns="http://www.w3.org/2000/svg" p-id="6479" width="20" height="20" xmlns:xlink="http://www.w3.org/1999/xlink"><path d="M512 34.13333333c-208.21333333 0-375.46666667 167.25333333-375.46666667 375.46666667 0 204.8 283.30666667 580.26666667 375.46666667 580.26666667s375.46666667-375.46666667 375.46666667-580.26666667c0-208.21333333-167.25333333-375.46666667-375.46666667-375.46666667z m0 870.4c-61.44 0-307.2-337.92-307.2-494.93333333 0-170.66666667 136.53333333-307.2 307.2-307.2s307.2 136.53333333 307.2 307.2c0 157.01333333-245.76 494.93333333-307.2 494.93333333z" fill="#F0F8FF" p-id="6480"></path><path d="M512 273.06666667c-75.09333333 0-136.53333333 61.44-136.53333333 136.53333333s61.44 136.53333333 136.53333333 136.53333333 136.53333333-61.44 136.53333333-136.53333333-61.44-136.53333333-136.53333333-136.53333333z m0 204.8c-37.54666667 0-68.26666667-30.72-68.26666667-68.26666667s30.72-68.26666667 68.26666667-68.26666667 68.26666667 30.72 68.26666667 68.26666667-30.72 68.26666667-68.26666667 68.26666667z" fill="#F0F8FF" p-id="6481"></path></svg>