<?xml version="1.0" standalone="no"?><!DOCTYPE svg PUBLIC "-//W3C//DTD SVG 1.1//EN" "http://www.w3.org/Graphics/SVG/1.1/DTD/svg11.dtd"><svg t="1735612397614" class="icon" viewBox="0 0 1024 1024" version="1.1" xmlns="http://www.w3.org/2000/svg" p-id="8933" xmlns:xlink="http://www.w3.org/1999/xlink" width="18" height="18"><path d="M306.39612 435.401575a120.944882 120.944882 0 0 1-120.944882-120.944882 129.007874 129.007874 0 0 1 120.944882-129.007874 129.007874 129.007874 0 0 1 129.007874 129.007874 129.007874 129.007874 0 0 1-129.007874 120.944882z m0-169.322835a48.377953 48.377953 0 0 0-40.314961 48.377953 40.314961 40.314961 0 0 0 40.314961 40.314961c32.251969 0 48.377953-16.125984 48.377952-40.314961a48.377953 48.377953 0 0 0-48.377952-48.377953z" fill="#F0F8FF" p-id="8934"></path><path d="M903.057537 1024H120.947301A120.944882 120.944882 0 0 1 0.002419 903.055118V120.944882A120.944882 120.944882 0 0 1 120.947301 0h782.110236a120.944882 120.944882 0 0 1 120.944882 120.944882v782.110236a120.944882 120.944882 0 0 1-120.944882 120.944882zM120.947301 80.629921a40.314961 40.314961 0 0 0-40.314961 40.314961v782.110236a40.314961 40.314961 0 0 0 40.314961 40.314961h782.110236a40.314961 40.314961 0 0 0 40.314961-40.314961V120.944882a40.314961 40.314961 0 0 0-40.314961-40.314961z" fill="#F0F8FF" p-id="8935"></path><path d="M40.31738 806.299213l-32.251969-16.125985a40.314961 40.314961 0 0 1 8.062992-56.440945L241.892183 548.283465c16.125984-16.125984 40.314961-16.125984 48.377952 0l129.007874 112.881889L693.419742 403.149606c16.125984-16.125984 40.314961-16.125984 48.377952 0l266.078741 193.511811a40.314961 40.314961 0 0 1 8.062992 56.440945 40.314961 40.314961 0 0 1-56.440945 8.062992L725.67171 483.779528 451.529978 741.795276a40.314961 40.314961 0 0 1-56.440945 0L266.081159 628.913386 64.506356 798.23622z" fill="#F0F8FF" p-id="8936"></path></svg>